<svg width="168" height="168" viewBox="0 0 168 168" fill="none" xmlns="http://www.w3.org/2000/svg">
<rect width="168" height="168" rx="25" fill="#46607D" fill-opacity="0.64"/>
<path d="M36 125.736V42.8194C36 39.1542 37.5694 35.6392 40.3629 33.0476C43.1564 30.456 46.9452 29 50.8958 29H125.375C126.955 29 128.471 29.5824 129.588 30.619C130.706 31.6557 131.333 33.0617 131.333 34.5278V134.027C131.333 135.493 130.706 136.899 129.588 137.936C128.471 138.973 126.955 139.555 125.375 139.555H50.8958C46.9452 139.555 43.1564 138.099 40.3629 135.507C37.5694 132.916 36 129.401 36 125.736ZM36 125.736C36 122.071 37.5694 118.555 40.3629 115.964C43.1564 113.372 46.9452 111.916 50.8958 111.916H131.333" stroke="white" stroke-width="5" stroke-linecap="round" stroke-linejoin="round"/>
</svg>
